<?xml version="1.0" standalone="no"?>
<!DOCTYPE svg PUBLIC "-//W3C//DTD SVG 20010904//EN"
 "http://www.w3.org/TR/2001/REC-SVG-20010904/DTD/svg10.dtd">
<svg version="1.0" xmlns="http://www.w3.org/2000/svg"
 width="360.000000pt" height="360.000000pt" viewBox="0 0 360.000000 360.000000"
 preserveAspectRatio="xMidYMid meet">

<g transform="translate(0.000000,360.000000) scale(0.100000,-0.100000)"
fill="#000000" stroke="none">
<path d="M1191 3266 c37 -35 90 -69 154 -100 89 -44 108 -49 201 -57 149 -13
235 -26 247 -38 18 -18 -145 -13 -298 10 -207 30 -317 54 -529 116 -226 66
-236 68 -236 56 0 -20 77 -85 135 -113 33 -17 110 -49 170 -72 98 -38 120 -42
205 -44 72 -2 453 -15 683 -23 9 -1 17 -5 17 -10 0 -12 -264 -26 -470 -25
-200 1 -450 27 -695 74 -166 31 -230 36 -255 20 -8 -5 -12 -10 -10 -12 9 -6
75 -41 121 -64 63 -32 220 -73 337 -88 56 -7 97 -17 100 -24 8 -25 -54 -35
-228 -38 -102 -1 -187 -7 -204 -14 l-30 -11 30 -20 c67 -45 232 -78 392 -80
48 0 96 -4 106 -8 47 -18 -55 -35 -336 -57 -43 -3 -78 -10 -78 -15 0 -29 141
-79 224 -79 65 0 65 -10 -1 -29 -24 -6 -43 -16 -43 -22 0 -20 75 -42 147 -43
72 -1 72 -1 38 -14 -19 -8 -35 -20 -35 -28 0 -16 60 -34 114 -34 33 0 37 -2
26 -15 -20 -24 0 -37 62 -43 29 -3 59 -12 67 -20 10 -10 28 -13 57 -9 32 3 41
1 37 -9 -8 -22 44 -28 88 -11 l39 15 -15 -21 c-20 -29 -19 -44 4 -57 16 -8 26
-5 50 16 36 30 37 29 15 -15 -13 -27 -14 -37 -4 -62 18 -43 29 -45 57 -13 24
28 24 29 16 4 -13 -41 -8 -90 11 -108 16 -16 19 -15 40 11 28 35 38 35 25 0
-11 -30 -4 -89 12 -99 5 -3 16 0 24 6 12 10 15 9 15 -4 0 -10 3 -15 8 -13 4 3
7 -8 8 -24 2 -54 17 -61 121 -53 51 4 93 4 93 1 0 -3 -26 -20 -57 -37 -135
-76 -311 -225 -290 -246 3 -3 32 9 66 25 34 17 61 27 61 21 0 -5 8 -7 18 -4
16 5 16 5 0 -9 -35 -28 -17 -28 37 2 52 27 55 28 49 9 -5 -16 -3 -20 9 -15 9
3 17 1 20 -6 2 -8 12 -7 35 2 51 21 47 7 -7 -28 -98 -63 -310 -137 -330 -115
-3 4 0 9 7 11 28 11 8 23 -37 23 -49 0 -161 35 -161 51 0 12 40 36 73 44 15 4
29 10 31 14 10 16 -93 134 -149 171 -32 21 -61 38 -62 36 -9 -9 23 -64 62
-108 42 -47 54 -68 39 -68 -4 0 -50 18 -102 41 -113 48 -214 104 -358 199 -58
39 -117 70 -130 70 -24 0 -24 -1 -9 -29 35 -69 123 -156 204 -204 44 -27 81
-50 81 -52 0 -5 -86 25 -182 64 -78 32 -144 39 -179 21 -37 -20 -17 -110 47
-212 l23 -36 -82 -7 c-110 -8 -187 -24 -187 -38 0 -18 96 -104 142 -128 l43
-22 -65 -22 c-135 -46 -200 -90 -200 -136 0 -23 8 -31 53 -53 28 -14 82 -33
120 -42 37 -9 67 -20 67 -25 0 -5 -4 -9 -8 -9 -5 0 -38 -19 -73 -42 -35 -23
-120 -72 -189 -108 -76 -40 -126 -72 -128 -83 -8 -41 142 -61 318 -43 69 8
140 18 158 24 17 6 32 7 32 3 0 -13 -111 -91 -235 -164 -160 -94 -235 -152
-217 -168 13 -12 168 13 262 43 52 17 135 48 183 70 49 22 91 38 93 35 3 -3
-22 -26 -55 -51 -60 -46 -103 -105 -116 -158 -5 -20 -3 -28 7 -28 34 0 152 85
257 186 133 128 153 138 171 95 19 -46 43 -63 72 -52 30 11 117 105 150 163
93 161 110 189 114 186 2 -2 -6 -28 -17 -58 -18 -47 -19 -61 -10 -121 13 -81
29 -119 49 -119 35 0 111 99 174 226 l63 127 50 17 c28 10 61 20 75 24 l25 7
-25 -21 -25 -21 25 7 c47 13 285 137 272 142 -28 9 -103 -11 -231 -63 -74 -30
-136 -53 -139 -51 -2 2 11 46 30 97 l33 93 50 -2 c40 -2 63 4 119 32 42 22 77
34 90 30 12 -3 33 -1 46 4 20 7 29 5 43 -11 9 -11 17 -24 17 -28 0 -5 6 -6 13
-4 7 3 24 -16 40 -45 41 -75 118 -115 124 -65 5 34 34 178 44 217 11 42 36 63
141 115 40 19 104 57 143 82 38 25 75 46 80 46 6 1 54 15 108 33 167 55 209
48 370 -61 32 -21 61 -36 64 -34 11 12 -29 118 -60 159 -23 30 -36 60 -40 93
-15 109 -99 216 -218 280 -48 25 -58 36 -88 98 -18 38 -45 83 -60 100 -33 40
-54 77 -43 77 16 0 71 -66 98 -120 22 -43 29 -50 32 -34 3 24 -15 70 -49 124
l-22 35 41 -40 c41 -38 57 -38 27 1 -16 21 -20 54 -7 54 13 0 37 -30 63 -80
l24 -45 3 48 c4 57 19 62 28 7 6 -35 8 -38 24 -27 31 22 178 197 195 233 9 19
15 45 13 57 -2 18 -9 22 -38 21 -19 0 -62 -9 -95 -19 -33 -9 -87 -21 -120 -25
-34 -4 -70 -12 -82 -18 -12 -7 -37 -12 -57 -12 -19 0 -45 -4 -58 -9 -13 -4
-35 -11 -50 -15 -37 -9 -37 11 2 89 16 33 30 72 30 86 0 82 -65 190 -144 239
-19 11 -101 47 -182 81 -82 33 -165 70 -184 83 -19 13 -45 28 -58 35 -22 12
-23 11 -12 -9 6 -12 10 -24 7 -26 -11 -11 -138 41 -217 88 -47 28 -89 53 -93
56 -5 2 -4 -5 2 -16 6 -12 19 -25 29 -31 9 -5 14 -13 10 -17 -4 -4 -51 14
-104 40 -106 51 -119 55 -105 29 24 -44 39 -54 101 -67 131 -29 19 -15 -155
19 -187 36 -307 71 -387 111 -51 26 -189 74 -210 74 -7 -1 12 -25 43 -54z
m739 -336 c0 -10 7 -9 -258 -50 -228 -35 -242 -36 -242 -12 0 9 4 22 8 28 14
23 492 56 492 34z m8 -66 c-4 -3 -42 -14 -85 -25 -43 -11 -145 -38 -227 -60
-154 -42 -171 -42 -164 1 3 21 15 25 145 51 78 15 155 29 170 32 45 7 167 8
161 1z m8 -61 c-4 -4 -66 -28 -139 -54 -73 -25 -162 -58 -199 -72 -57 -22 -67
-23 -72 -10 -14 36 -6 51 37 62 228 61 308 80 341 81 22 0 36 -3 32 -7z m319
-33 c0 -8 -14 -17 -34 -21 -56 -12 -82 8 -38 29 30 15 72 11 72 -8z m-285 -19
c0 -5 -12 -12 -27 -16 -39 -9 -218 -96 -288 -138 -55 -34 -61 -36 -72 -20 -23
30 -15 52 25 68 69 30 207 77 277 95 83 22 85 23 85 11z m365 -25 c18 -13 18
-14 -4 -26 -30 -16 -88 -17 -103 -2 -33 33 65 59 107 28z m-430 -80 c-66 -34
-133 -70 -149 -79 -50 -27 -61 -6 -21 42 26 30 91 59 190 86 107 29 101 15
-20 -49z m520 34 c3 -6 -4 -10 -17 -10 -13 0 -30 -4 -38 -10 -12 -7 -11 -10 5
-15 60 -19 61 -22 13 -30 -26 -4 -54 -5 -62 -2 -19 8 -9 44 17 62 24 17 73 20
82 5z m-39 -215 c4 -8 17 -15 29 -15 49 0 31 -17 -37 -34 -69 -18 -72 -18 -85
-1 -10 14 -10 22 -1 33 26 31 85 41 94 17z m57 -88 l47 -13 -34 -12 c-19 -7
-46 -26 -60 -42 -14 -17 -32 -30 -42 -30 -14 0 -16 7 -11 36 6 33 31 75 46 74
3 -1 27 -7 54 -13z m37 -58 c0 -10 -59 -39 -82 -39 -16 0 53 49 70 50 6 0 12
-5 12 -11z m-244 -70 c12 -28 21 -38 31 -35 8 4 27 8 41 11 26 5 26 5 -3 -9
-37 -18 -107 -20 -123 -4 -18 18 -15 55 6 67 27 16 31 14 48 -30z m254 16
c-46 -18 -59 -18 -36 0 11 8 31 15 45 14 24 0 23 -2 -9 -14z m63 -42 c22 -11
28 -18 17 -21 -8 -3 -18 -10 -22 -15 -11 -18 -58 9 -58 33 0 24 20 26 63 3z
m-273 -48 c11 -13 15 -13 33 0 29 21 60 19 90 -5 30 -24 46 -25 53 -5 7 16 30
8 60 -22 17 -17 16 -18 -22 -25 -53 -9 -179 -10 -188 0 -4 4 -31 7 -59 7 -47
0 -52 2 -55 24 -2 13 2 28 10 32 21 14 64 10 78 -6z m636 -72 c-5 -4 -11 -2
-14 5 -2 8 -18 30 -35 50 -28 34 -27 34 13 -5 24 -23 40 -46 36 -50z m-605
-63 c14 0 47 7 73 16 26 9 49 14 52 12 9 -9 -146 -49 -178 -46 -28 2 -34 7
-36 31 l-3 28 33 -21 c18 -11 45 -20 59 -20z m959 -424 c0 -5 -13 3 -30 19
-16 16 -30 30 -30 32 0 2 14 -6 30 -19 17 -12 30 -26 30 -32z m-1366 -360
c-21 -15 -30 -14 -19 3 3 6 14 11 23 11 13 0 13 -2 -4 -14z"/>
<path d="M1542 3229 c6 -17 47 -45 78 -55 23 -6 24 -5 11 10 -20 24 -94 61
-89 45z"/>
<path d="M2992 2174 c0 -59 2 -64 15 -51 12 12 14 26 9 61 -11 70 -25 64 -24
-10z"/>
<path d="M1150 1937 c0 -13 6 -31 13 -40 14 -18 100 -78 105 -72 8 8 -40 85
-68 109 -39 32 -50 33 -50 3z"/>
<path d="M1360 1905 c0 -22 50 -81 152 -179 l113 -108 37 11 c20 7 40 16 43
20 7 12 -112 120 -166 150 l-42 24 25 -34 c28 -38 61 -99 53 -99 -12 0 -124
109 -163 159 -52 67 -52 66 -52 56z"/>
<path d="M410 1699 c7 -11 14 -19 16 -16 7 7 -7 37 -17 37 -6 0 -5 -9 1 -21z"/>
<path d="M1615 1590 c-10 -11 -16 -22 -14 -25 7 -6 49 24 49 36 0 15 -16 10
-35 -11z"/>
<path d="M257 1333 c-14 -13 -6 -33 13 -33 13 0 20 7 20 20 0 19 -20 27 -33
13z"/>
<path d="M380 1246 c0 -8 57 -36 75 -36 25 0 17 17 -12 24 -16 4 -36 9 -45 12
-10 3 -18 3 -18 0z"/>
<path d="M300 1070 c-11 -11 -20 -32 -20 -47 l0 -27 25 34 c37 51 34 79 -5 40z"/>
<path d="M2543 1025 c15 -10 16 -18 9 -32 -8 -13 -7 -22 3 -33 7 -8 18 -31 23
-50 l9 -35 13 27 c11 23 11 35 0 70 -17 55 -28 68 -54 68 -20 -1 -20 -1 -3
-15z"/>
<path d="M1960 937 c-14 -7 -56 -25 -95 -41 -90 -37 -98 -46 -49 -48 77 -4
100 1 224 51 l125 51 -90 0 c-53 0 -100 -5 -115 -13z"/>
<path d="M2500 875 c0 -8 -9 -15 -20 -15 -21 0 -26 -10 -11 -25 5 -6 11 -19
13 -30 3 -17 6 -16 21 12 19 35 22 73 7 73 -5 0 -10 -7 -10 -15z"/>
<path d="M2100 873 c-44 -8 -187 -51 -210 -63 -63 -34 -161 -103 -184 -131
-29 -35 -34 -69 -10 -69 12 0 15 6 10 25 -5 21 0 32 26 55 30 27 136 78 198
94 24 7 24 6 -5 -19 -16 -15 -25 -25 -20 -23 8 2 158 61 315 123 l35 14 -65
-1 c-36 0 -76 -3 -90 -5z"/>
<path d="M412 667 c-36 -37 -32 -49 21 -62 27 -7 27 -7 27 44 0 28 -4 51 -8
51 -4 0 -23 -15 -40 -33z"/>
<path d="M1354 565 c-7 -19 -14 -44 -14 -55 0 -38 17 -20 32 35 17 61 5 75
-18 20z"/>
<path d="M1477 553 c-26 -25 13 -83 56 -83 16 0 19 5 13 32 -3 17 -11 37 -17
45 -12 14 -41 18 -52 6z"/>
<path d="M1090 503 c0 -31 7 -44 46 -80 26 -24 52 -43 58 -43 58 1 37 73 -37
124 -29 20 -56 36 -60 36 -4 0 -7 -17 -7 -37z"/>
</g>
</svg>
